<svg xmlns="http://www.w3.org/2000/svg" width="256" height="256" viewBox="0 0 128 128">
  <defs>
    <linearGradient id="bg" x1="16" y1="12" x2="112" y2="116" gradientUnits="userSpaceOnUse">
      <stop stop-color="#182232"/>
      <stop offset="1" stop-color="#080b12"/>
    </linearGradient>
    <linearGradient id="mark" x1="30" y1="26" x2="98" y2="102" gradientUnits="userSpaceOnUse">
      <stop stop-color="#7bd88f"/>
      <stop offset="0.62" stop-color="#7aa2ff"/>
      <stop offset="1" stop-color="#ff7b2f"/>
    </linearGradient>
  </defs>
  <rect id="background" width="128" height="128" rx="24" fill="url(#bg)"/>
  <rect id="mark-field" x="20" y="16" width="88" height="96" rx="22" fill="#0f1724" stroke="url(#mark)" stroke-width="3"/>
  <path
    id="left-brace"
    d="M54 33h-5c-7 0-11 4-11 12v10c0 6-4 10-10 10 6 0 10 4 10 10v10c0 8 4 12 11 12h5"
    fill="none"
    stroke="#f7fbff"
    stroke-width="8"
    stroke-linecap="round"
    stroke-linejoin="round"
  />
  <path
    id="right-brace"
    d="M74 33h5c7 0 11 4 11 12v10c0 6 4 10 10 10-6 0-10 4-10 10v10c0 8-4 12-11 12h-5"
    fill="none"
    stroke="#f7fbff"
    stroke-width="8"
    stroke-linecap="round"
    stroke-linejoin="round"
  />
  <circle id="focus-dot" cx="64" cy="65" r="5" fill="#7aa2ff"/>
  <circle id="top-accent" cx="64" cy="45" r="3" fill="#7bd88f"/>
  <circle id="bottom-accent" cx="64" cy="85" r="3" fill="#ff7b2f"/>
</svg>
